<svg xmlns="http://www.w3.org/2000/svg" viewBox="0 0 490.21 287.37"><defs><style>.cls-1{fill:#0797a7;}.cls-2{fill:#0cc3be;}.cls-3{fill:#fd7658;}.cls-4{fill:#f88859;}.cls-5{fill:#de624c;}.cls-6{fill:#fda859;}.cls-7{fill:#fcc700;}.cls-8{fill:#fff;}</style></defs><title>Asset 1</title><g id="Layer_2" data-name="Layer 2"><g id="OBJECTS"><path class="cls-1" d="M474.49,241.17l-15.14.93,11.18,3.21c-4,3.95-7.17,7-11.92,11.07l-22-1.88,16.81,6.4A116.69,116.69,0,0,1,439,271.54c-9.68-2.62-20.12-4.86-20.12-4.86L431.84,276a77.57,77.57,0,0,1-22.19,8.85c-1.18.23,0,0-1.18.23L395,280.59l5.75,5.77c-31.12,4.21-39.67-7.27-39.67-7.27a13.76,13.76,0,0,1,.31-1.73,30.42,30.42,0,0,1,1.05-3.5c2-5.71,7.06-15.74,19.43-28.36l.82,10.63,4.2-13.71c1.14-.84,2.3-1.69,3.53-2.53,3.92-2.74,3.16-2.81,7.93-4.75l1,14.82,5.85-17.71c2.83-1.09,5.78-2.05,8.79-2.91l-2.29,14.17,9.29-15.77a98,98,0,0,1,13.65-2.65l-2.53,14.72,10.31-15.5a104.84,104.84,0,0,1,16.11-1.07l-3.74,12.27,9.83-12.82c12.75,0,25.64.94,25.64.94A215.07,215.07,0,0,1,474.49,241.17Z"/><path class="cls-2" d="M441.13,179.58l-9.69,7.84,9-3.18c-.78,4.54-1.48,8.08-2.71,13.1l-15.66,9.25,14.31-3.73a95.17,95.17,0,0,1-4.53,14c-7.73,2.86-15.79,6.34-15.79,6.34l13.08.07a63.86,63.86,0,0,1-10.63,16.5c-.69.73,0,.05-.69.73l-11.18,3.45,6.6,1.13c-18.83,17.65-30,14-30,14a11.63,11.63,0,0,1-.62-1.3,24.29,24.29,0,0,1-1-2.85c-1.37-4.79-2.78-13.91-.51-28.26l5.61,6.73L383,222.22c.36-1.11.73-2.23,1.16-3.38,1.32-3.71.77-3.39,3-7l7.74,9.44-4.53-14.64c1.38-2.09,2.89-4.14,4.5-6.14l5.22,10.57-1.29-15a80.91,80.91,0,0,1,7.87-8.28l5.32,11.06-.47-15.29a85.42,85.42,0,0,1,10.27-8.41l3.35,10,.47-13.27c8.53-6.1,17.61-11.6,17.61-11.6A176.16,176.16,0,0,1,441.13,179.58Z"/><path class="cls-1" d="M7.48,171.81,21,178.67,9.47,177.19c2.08,5.2,3.83,9.23,6.56,14.88l21,7-18-.78a115.16,115.16,0,0,0,9,15.45c9.92,1.42,20.39,3.51,20.39,3.51l-15.54,3.41c5.08,6.7,10.69,12.61,16.86,16.91,1,.69,0,.06,1,.69l14.18,1.25-7.56,3c26.9,16.19,39.3,9,39.3,9a13.46,13.46,0,0,0,.4-1.71,31.73,31.73,0,0,0,.42-3.63c.41-6.05-.24-17.25-6.6-33.73l-5,9.43,1.58-14.25c-.71-1.22-1.44-2.47-2.24-3.73-2.51-4.06-1.78-3.83-5.4-7.5L73,209.68l1.65-18.57c-2.17-2.13-4.49-4.18-6.91-6.16l-3.52,13.92L62,180.7a99.73,99.73,0,0,0-11.48-7.84L47,187.38l-3.33-18.31a104.25,104.25,0,0,0-14.37-7.37l-1.43,12.74-3.94-15.65C12.21,153.71,0,149.48,0,149.48A214.21,214.21,0,0,0,7.48,171.81Z"/><path class="cls-2" d="M24.75,78.4A27.73,27.73,0,0,1,29.81,98c.37,1.15.79,2.48,1.27,4a37.1,37.1,0,0,1,12.2-15.38,27.68,27.68,0,0,1-11.81,16.58c.79,2.44,1.71,5.25,2.76,8.37q.74,2.16,1.54,4.51c.26.74.53,1.49.81,2.26A48,48,0,0,1,56.72,98.11a36.27,36.27,0,0,1-19.95,20.7c.25.67.49,1.35.74,2,1.17,3.36,2.56,6.86,4,10.57.65,1.66,1.34,3.35,2,5.07,4.33-10.76,12.29-19.75,21.88-26.22A44,44,0,0,1,44.15,138c1.65,4,3.41,8.12,5.29,12.3l.16.1-.11,0c.65,1.44,1.3,2.88,2,4.32.06.14.13.28.2.42a49.7,49.7,0,0,1,26.05-28.47c-4.87,12.52-14.09,22.85-25.24,30.2,3.43,7.19,6.85,13.82,10.07,19.73.27.49.54,1,.8,1.44,2.66-15.92,12.58-31,26.07-39.48-3.67,16-13.1,30-25.39,40.68,1.25,2.24,2.46,4.4,3.66,6.36.82,1.37,1.6,2.73,2.37,4l2.22,3.57.06.1c4.36-14.73,15.4-27.9,29.06-34.44-5.17,14.68-15.52,26.94-28.2,35.79,5.17,8.18,8.49,12.82,8.39,13.33-.06.34-2.72-2.5-7-8.34-11.47,5.57-24.61,6.8-37.13,4.65a46.38,46.38,0,0,1,36.41-5.64c-.67-.94-1.38-1.94-2.12-3l-.1.07s0-.1,0-.14l-.12-.18L69.25,192c-.8-1.23-1.62-2.56-2.48-3.92-.31-.47-.62-1-.94-1.48-15.37,4.71-32,3.78-47.23-1.21a59.37,59.37,0,0,1,46-.87c-1-1.72-2.08-3.53-3.17-5.39-1.37-2.42-2.78-5-4.2-7.67-16.16,1.9-32.52-2.13-46.71-10a59.37,59.37,0,0,1,45.65,7.95c-2.06-3.95-4.15-8.15-6.22-12.57-.92-2-1.82-4-2.69-6-13.11,2-26.59-.57-38.52-6.29a49.85,49.85,0,0,1,37.44,3.82c-2-4.68-3.87-9.28-5.58-13.69A43.93,43.93,0,0,1,9.71,119.22,56.81,56.81,0,0,1,39.55,132c-1.3-3.56-2.56-7-3.62-10.2-.57-1.73-1.15-3.39-1.66-5-.21-.69-.42-1.35-.62-2a22.64,22.64,0,0,1-20.09-8.38,29,29,0,0,1,19.58,6.74c-.1-.34-.21-.69-.31-1-.95-3.12-1.75-5.92-2.41-8.37h0a.14.14,0,0,0,0-.06l-.3-1.13a27.61,27.61,0,0,1-16.24-12,35.8,35.8,0,0,1,15.75,10.13c-.22-.82-.4-1.58-.58-2.29A36.77,36.77,0,0,1,24.75,78.4Z"/><path class="cls-2" d="M78.32,10.18a27.75,27.75,0,0,0,18.85,7.31L101,19.21A37.1,37.1,0,0,0,84.26,29.54a27.74,27.74,0,0,0,17.84-9.8c2.33,1.07,5,2.31,8,3.72l4.3,2.05,2.15,1.07A48.06,48.06,0,0,0,94.17,44.24a36.34,36.34,0,0,0,22.89-17.4l1.93,1c3.2,1.56,6.51,3.35,10,5.18,1.57.84,3.17,1.72,4.8,2.61-11.19,3.06-21.05,9.91-28.59,18.69A44,44,0,0,0,135.29,36.4c3.78,2.11,7.67,4.34,11.6,6.68l.08.18a.36.36,0,0,0,0-.11l4.06,2.46.4.25a49.64,49.64,0,0,0-31.32,22.56c13-3.38,24.34-11.33,32.94-21.55,6.74,4.24,12.92,8.41,18.42,12.29l1.33,1c-16.11.78-32.29,8.88-42.25,21.29,16.28-1.78,31.33-9.52,43.37-20.48,2.08,1.51,4.08,3,5.89,4.37,1.27,1,2.52,1.91,3.69,2.82l3.29,2.63.09.07c-15.14,2.62-29.5,12-37.58,24.85,15.17-3.43,28.56-12.27,38.82-23.84,7.53,6.09,11.74,9.93,12.27,9.89.34,0-2.17-3-7.47-7.9,6.87-10.74,9.62-23.65,8.94-36.33A46.32,46.32,0,0,0,192.06,73c-.86-.77-1.77-1.6-2.75-2.46l.07-.08-.14,0-.17-.14-3.15-2.73c-1.13-.94-2.35-1.91-3.6-2.92L181,63.59c6.46-14.73,7.47-31.34,4.3-47.05A59.34,59.34,0,0,0,179,62.09c-1.59-1.22-3.26-2.47-5-3.78-2.25-1.64-4.63-3.34-7.13-5.06,3.76-15.83,1.67-32.55-4.45-47.55A59.37,59.37,0,0,0,165.05,52c-3.68-2.51-7.61-5.07-11.76-7.64-1.88-1.16-3.75-2.28-5.62-3.38,3.55-12.78,2.52-26.47-1.77-39a49.87,49.87,0,0,0-.56,37.63c-4.42-2.55-8.77-4.94-13-7.14A43.93,43.93,0,0,0,120.61,0c-.19,11.06,3.35,21.83,9.22,31.13-3.39-1.7-6.6-3.35-9.71-4.78-1.65-.78-3.23-1.54-4.78-2.24l-1.91-.85a22.67,22.67,0,0,0-6-20.93,29,29,0,0,0,4.41,20.24l-1-.43c-3-1.3-5.68-2.42-8-3.37,0,0,0,0,0,0h-.06l-1.09-.44A27.61,27.61,0,0,0,91.69.79a35.64,35.64,0,0,0,8.22,16.82l-2.21-.84A36.84,36.84,0,0,0,78.32,10.18Z"/><path class="cls-3" d="M401.78,79.56v196a11.36,11.36,0,0,1-.36,2.88A11.79,11.79,0,0,1,390,287.37H77.3a11.78,11.78,0,0,1-11.78-11.79v-196A11.77,11.77,0,0,1,77.3,67.78H390A11.78,11.78,0,0,1,401.78,79.56Z"/><path class="cls-4" d="M401.78,79.56V244.78c-20.85-2.52-41.47-9.39-57.42-22.89-17.65-14.94-28.59-39-23.86-61.61-11.95,31.85-50.7,48.46-84,41.56s-60.26-33-75.49-63.45c-8.06-16.1-20.14-45.12-21.85-70.61H390A11.78,11.78,0,0,1,401.78,79.56Z"/><path class="cls-5" d="M401.42,278.46A11.79,11.79,0,0,1,390,287.37H77.3a11.78,11.78,0,0,1-11.78-11.79v-24.5a42.76,42.76,0,0,0,7.29,8.29c12.34,10.84,29.42,14.89,45.84,14.8s32.55-3.89,48.66-7a584.14,584.14,0,0,1,156.93-8.68C350.72,260.61,378.83,265.58,401.42,278.46Z"/><rect class="cls-6" x="93.24" y="96.41" width="50.22" height="50.22" rx="5.55"/><rect class="cls-7" x="95.38" y="98.55" width="45.95" height="45.95" rx="4.47"/><path class="cls-6" d="M126.58,137.55H110.13a4.87,4.87,0,0,1-4.86-4.86V110.36a4.87,4.87,0,0,1,4.86-4.87h16.45a4.87,4.87,0,0,1,4.87,4.87v22.33A4.87,4.87,0,0,1,126.58,137.55Zm-16.45-27.78a.58.58,0,0,0-.59.59v22.33a.59.59,0,0,0,.59.59h16.45a.59.59,0,0,0,.59-.59V110.36a.58.58,0,0,0-.59-.59Z"/><rect class="cls-6" x="95.38" y="111.37" width="12.02" height="4.27"/><rect class="cls-6" x="95.38" y="119.39" width="12.02" height="4.27"/><rect class="cls-6" x="95.38" y="127.4" width="12.02" height="4.27"/><rect class="cls-6" x="129.31" y="111.37" width="12.02" height="4.27"/><rect class="cls-6" x="129.31" y="119.39" width="12.02" height="4.27"/><rect class="cls-6" x="129.31" y="127.4" width="12.02" height="4.27"/><path class="cls-8" d="M99.58,170.06v14H95.93v-11H93.24v-3Z"/><path class="cls-8" d="M115.08,179.63c0,2.69-2.21,4.56-5.68,4.56a9.56,9.56,0,0,1-5.5-1.71l1.48-2.81a5.23,5.23,0,0,0,3.74,1.73c1.54,0,2.39-.63,2.39-1.73s-.85-1.7-2.41-1.7h-2.35V176l3.27-3.13h-5.38l0-2.81h9.76v2.12l-3.76,3.5.69.1C113.52,176.14,115.08,177.5,115.08,179.63Z"/><path class="cls-8" d="M127.61,177c0,4.56-2,7.09-5.46,7.09s-5.48-2.53-5.48-7.09,1.93-7.07,5.48-7.07S127.61,172.48,127.61,177Zm-7.45,0c0,3.19.57,4.52,2,4.52s2-1.33,2-4.52-.58-4.52-2-4.52S120.16,173.83,120.16,177Z"/><path class="cls-8" d="M140.16,170v2.54L134.9,184h-3.85l5.1-11h-3.9v2H129V170Z"/><path class="cls-8" d="M168.48,181.42c2.17,0,3.23-1.39,3.19-3.68a3.76,3.76,0,0,1-3.25,1.51,4.2,4.2,0,0,1-4.42-4.54c0-3,2-4.8,5.12-4.8,3.69,0,5.92,2.63,5.92,6.91,0,4.46-2.47,7.37-6.34,7.37a9.38,9.38,0,0,1-4.44-1.15l1.35-2.51A5,5,0,0,0,168.48,181.42Zm-1.21-6.69a1.75,1.75,0,0,0,1.93,1.91,1.87,1.87,0,0,0,2.07-2,2,2,0,0,0-4,.06Z"/><path class="cls-8" d="M183.94,170.06v14h-3.65v-11H177.6v-3Z"/><path class="cls-8" d="M196.23,170.06v14h-3.65v-11h-2.69v-3Z"/><path class="cls-8" d="M211.73,179.63c0,2.69-2.21,4.56-5.68,4.56a9.56,9.56,0,0,1-5.5-1.71l1.48-2.81a5.23,5.23,0,0,0,3.74,1.73c1.54,0,2.39-.63,2.39-1.73s-.85-1.7-2.41-1.7H203.4V176l3.27-3.13h-5.38l0-2.81H211v2.12l-3.76,3.5.69.1C210.17,176.14,211.73,177.5,211.73,179.63Z"/><path class="cls-8" d="M247.17,177c0,4.56-2,7.09-5.46,7.09s-5.48-2.53-5.48-7.09,1.93-7.07,5.48-7.07S247.17,172.48,247.17,177Zm-7.46,0c0,3.19.58,4.52,2,4.52s2-1.33,2-4.52-.58-4.52-2-4.52S239.71,173.83,239.71,177Z"/><path class="cls-8" d="M254,175.11c3.28,0,5.42,1.73,5.42,4.22,0,2.95-2.26,4.86-5.7,4.86a10.32,10.32,0,0,1-5.54-1.75l1.45-2.83a5.05,5.05,0,0,0,3.65,1.75c1.41,0,2.21-.64,2.21-1.77s-.8-1.66-2.19-1.66c-.74,0-3,0-3.91.09v-8h9.39v3h-6v2.14C253,175.11,253.72,175.11,254,175.11Z"/><path class="cls-8" d="M265.13,181.42c2.17,0,3.23-1.39,3.19-3.68a3.76,3.76,0,0,1-3.25,1.51,4.2,4.2,0,0,1-4.42-4.54c0-3,2-4.8,5.12-4.8,3.69,0,5.92,2.63,5.92,6.91,0,4.46-2.47,7.37-6.34,7.37a9.38,9.38,0,0,1-4.44-1.15l1.35-2.51A5,5,0,0,0,265.13,181.42Zm-1.21-6.69a1.75,1.75,0,0,0,1.93,1.91,1.87,1.87,0,0,0,2.07-2,2,2,0,0,0-4,.06Z"/><path class="cls-8" d="M279.75,174.11c0-.76-.57-1.2-1.59-1.2a6.59,6.59,0,0,0-3.87,1.78L272.92,172a9.77,9.77,0,0,1,5.78-2.12c2.83,0,4.88,1.48,4.88,3.69,0,1.52-1.16,3.09-2.71,4.66L278,181.1h6V184H273.34l0-2.41,5.08-5.22A4.14,4.14,0,0,0,279.75,174.11Z"/><path class="cls-8" d="M315,174.11c0-.76-.58-1.2-1.59-1.2a6.59,6.59,0,0,0-3.87,1.78L308.12,172a9.77,9.77,0,0,1,5.77-2.12c2.83,0,4.89,1.48,4.89,3.69,0,1.52-1.16,3.09-2.71,4.66l-2.87,2.87h6V184H308.54l0-2.41,5.09-5.22A4.2,4.2,0,0,0,315,174.11Z"/><path class="cls-8" d="M331.78,170v2.54L326.52,184h-3.84l5.1-11h-3.91v2h-3.22V170Z"/><path class="cls-8" d="M340.37,170.06v14h-3.65v-11H334v-3Z"/><path class="cls-8" d="M352.66,170.06v14H349v-11h-2.69v-3Z"/><path class="cls-8" d="M97.32,209.44v9H95v-7.06H93.24v-1.92Z"/><path class="cls-8" d="M105.23,209.44v9h-2.34v-7.06h-1.73v-1.92Z"/><path class="cls-8" d="M113.48,208l-4.16,11.79H107.4L111.55,208Z"/><path class="cls-8" d="M117.16,212c0-.49-.37-.77-1-.77a4.18,4.18,0,0,0-2.48,1.14l-.89-1.73a6.28,6.28,0,0,1,3.72-1.36c1.82,0,3.14,1,3.14,2.37a4.87,4.87,0,0,1-1.74,3L116,216.54h3.84v1.88H113v-1.55l3.27-3.36A2.67,2.67,0,0,0,117.16,212Z"/><path class="cls-8" d="M127.67,215.59c0,1.73-1.42,2.93-3.65,2.93a6.08,6.08,0,0,1-3.54-1.1l1-1.81a3.36,3.36,0,0,0,2.41,1.12c1,0,1.54-.41,1.54-1.12s-.55-1.09-1.55-1.09h-1.52v-1.25l2.1-2H121v-1.81h6.28v1.36l-2.42,2.25.45.07A2.51,2.51,0,0,1,127.67,215.59Z"/><path class="cls-8" d="M94.3,201.05l.93,2.72,1-2.72h1l-1.46,3.75h-1l-1.46-3.75Z"/><path class="cls-8" d="M99.73,204.14H98.11l-.26.66h-1l1.61-3.75h1L101,204.8h-1Zm-.29-.75-.51-1.34-.52,1.34Z"/><path class="cls-8" d="M102.34,201.05V204h1.59v.83h-2.56v-3.75Z"/><path class="cls-8" d="M105.35,201.05v3.75h-1v-3.75Z"/><path class="cls-8" d="M109.69,202.93a1.86,1.86,0,0,1-2,1.87h-1.58v-3.75h1.61A1.84,1.84,0,0,1,109.69,202.93Zm-1,0a1,1,0,0,0-1-1.09h-.61V204h.66A1,1,0,0,0,108.69,202.94Z"/><path class="cls-8" d="M114.2,201.05v.78h-1.82v.84h1.68v.78h-1.68v1.35h-1v-3.75Z"/><path class="cls-8" d="M116.89,204.8l-.54-1h-.73v1h-1v-3.75h1.69c1,0,1.56.49,1.56,1.32a1.28,1.28,0,0,1-.67,1.21l.78,1.22ZM115.62,203h.71c.4,0,.63-.2.63-.58s-.23-.57-.63-.57h-.71Z"/><path class="cls-8" d="M122.32,202.93a2,2,0,1,1-2-1.9A1.93,1.93,0,0,1,122.32,202.93Zm-3,0a1.05,1.05,0,0,0,1,1.08,1.08,1.08,0,1,0-1-1.08Z"/><path class="cls-8" d="M123.88,201.05l1,2.19,1-2.19h1.07v3.75h-.87v-2.37l-.87,2h-.64l-.87-2v2.37h-.87v-3.75Z"/><path class="cls-8" d="M344.29,261.35a13.18,13.18,0,1,1,13.18-13.18A13.2,13.2,0,0,1,344.29,261.35Zm0-24.23a11,11,0,1,0,11,11A11.06,11.06,0,0,0,344.29,237.12Z"/><path class="cls-8" d="M361,261.35a13.18,13.18,0,1,1,13.18-13.18A13.2,13.2,0,0,1,361,261.35Zm0-24.23a11,11,0,1,0,11,11A11.07,11.07,0,0,0,361,237.12Z"/><rect class="cls-8" x="93.24" y="242.24" width="158.06" height="9.85"/></g></g></svg>